<mxfile host="app.diagrams.net" modified="2023-08-29T21:21:31.844Z" agent="Mozilla/5.0 (Windows NT 10.0; Win64; x64) AppleWebKit/537.36 (KHTML, like Gecko) Chrome/116.0.0.0 Safari/537.36" etag="xtFYm5D1MmUDFH5A2C3t" version="21.6.9" type="github">
  <diagram id="R2lEEEUBdFMjLlhIrx00" name="Page-1">
    <mxGraphModel dx="1434" dy="790" grid="1" gridSize="10" guides="1" tooltips="1" connect="1" arrows="1" fold="1" page="1" pageScale="1" pageWidth="850" pageHeight="1100" math="0" shadow="0" extFonts="Permanent Marker^https://fonts.googleapis.com/css?family=Permanent+Marker">
      <root>
        <mxCell id="0" />
        <mxCell id="1" parent="0" />
        <mxCell id="tyS5qPTHtcAFGtZFeySP-1" value="ESCOLA" style="rounded=0;whiteSpace=wrap;html=1;" vertex="1" parent="1">
          <mxGeometry x="360" y="120" width="120" height="60" as="geometry" />
        </mxCell>
        <mxCell id="tyS5qPTHtcAFGtZFeySP-2" value="" style="endArrow=none;dashed=1;html=1;rounded=0;" edge="1" parent="1">
          <mxGeometry width="50" height="50" relative="1" as="geometry">
            <mxPoint x="419.5" y="230" as="sourcePoint" />
            <mxPoint x="419.5" y="180" as="targetPoint" />
          </mxGeometry>
        </mxCell>
        <mxCell id="tyS5qPTHtcAFGtZFeySP-3" value="TER" style="rhombus;whiteSpace=wrap;html=1;" vertex="1" parent="1">
          <mxGeometry x="380" y="230" width="80" height="80" as="geometry" />
        </mxCell>
        <mxCell id="tyS5qPTHtcAFGtZFeySP-4" value="1" style="text;html=1;strokeColor=none;fillColor=none;align=center;verticalAlign=middle;whiteSpace=wrap;rounded=0;" vertex="1" parent="1">
          <mxGeometry x="400" y="210" width="60" height="30" as="geometry" />
        </mxCell>
        <mxCell id="tyS5qPTHtcAFGtZFeySP-5" value="TURMAS" style="rounded=0;whiteSpace=wrap;html=1;" vertex="1" parent="1">
          <mxGeometry x="360" y="360" width="120" height="60" as="geometry" />
        </mxCell>
        <mxCell id="tyS5qPTHtcAFGtZFeySP-6" value="" style="endArrow=none;dashed=1;html=1;rounded=0;" edge="1" parent="1">
          <mxGeometry width="50" height="50" relative="1" as="geometry">
            <mxPoint x="419.5" y="360" as="sourcePoint" />
            <mxPoint x="419.5" y="310" as="targetPoint" />
          </mxGeometry>
        </mxCell>
        <mxCell id="tyS5qPTHtcAFGtZFeySP-7" value="N" style="text;html=1;strokeColor=none;fillColor=none;align=center;verticalAlign=middle;whiteSpace=wrap;rounded=0;" vertex="1" parent="1">
          <mxGeometry x="400" y="330" width="60" height="30" as="geometry" />
        </mxCell>
        <mxCell id="tyS5qPTHtcAFGtZFeySP-8" value="TER" style="rhombus;whiteSpace=wrap;html=1;" vertex="1" parent="1">
          <mxGeometry x="530" y="350" width="80" height="80" as="geometry" />
        </mxCell>
        <mxCell id="tyS5qPTHtcAFGtZFeySP-9" value="" style="endArrow=none;dashed=1;html=1;rounded=0;" edge="1" parent="1">
          <mxGeometry width="50" height="50" relative="1" as="geometry">
            <mxPoint x="531" y="390" as="sourcePoint" />
            <mxPoint x="480" y="390" as="targetPoint" />
          </mxGeometry>
        </mxCell>
        <mxCell id="tyS5qPTHtcAFGtZFeySP-10" value="N" style="text;html=1;strokeColor=none;fillColor=none;align=center;verticalAlign=middle;whiteSpace=wrap;rounded=0;" vertex="1" parent="1">
          <mxGeometry x="500" y="360" width="60" height="30" as="geometry" />
        </mxCell>
        <mxCell id="tyS5qPTHtcAFGtZFeySP-12" value="" style="endArrow=none;dashed=1;html=1;rounded=0;" edge="1" parent="1">
          <mxGeometry width="50" height="50" relative="1" as="geometry">
            <mxPoint x="569.5" y="480" as="sourcePoint" />
            <mxPoint x="569.5" y="430" as="targetPoint" />
          </mxGeometry>
        </mxCell>
        <mxCell id="tyS5qPTHtcAFGtZFeySP-13" value="N" style="text;html=1;strokeColor=none;fillColor=none;align=center;verticalAlign=middle;whiteSpace=wrap;rounded=0;" vertex="1" parent="1">
          <mxGeometry x="550" y="430" width="60" height="30" as="geometry" />
        </mxCell>
        <mxCell id="tyS5qPTHtcAFGtZFeySP-14" value="PROFESSORES" style="rounded=0;whiteSpace=wrap;html=1;" vertex="1" parent="1">
          <mxGeometry x="510" y="480" width="120" height="60" as="geometry" />
        </mxCell>
        <mxCell id="tyS5qPTHtcAFGtZFeySP-15" value="" style="endArrow=none;dashed=1;html=1;rounded=0;" edge="1" parent="1">
          <mxGeometry width="50" height="50" relative="1" as="geometry">
            <mxPoint x="569.5" y="590" as="sourcePoint" />
            <mxPoint x="569.5" y="540" as="targetPoint" />
          </mxGeometry>
        </mxCell>
        <mxCell id="tyS5qPTHtcAFGtZFeySP-16" value="MINISTRAR" style="rhombus;whiteSpace=wrap;html=1;" vertex="1" parent="1">
          <mxGeometry x="530" y="590" width="80" height="80" as="geometry" />
        </mxCell>
        <mxCell id="tyS5qPTHtcAFGtZFeySP-17" value="" style="endArrow=none;dashed=1;html=1;rounded=0;" edge="1" parent="1">
          <mxGeometry width="50" height="50" relative="1" as="geometry">
            <mxPoint x="419.5" y="470" as="sourcePoint" />
            <mxPoint x="419.5" y="420" as="targetPoint" />
          </mxGeometry>
        </mxCell>
        <mxCell id="tyS5qPTHtcAFGtZFeySP-18" value="TER" style="rhombus;whiteSpace=wrap;html=1;" vertex="1" parent="1">
          <mxGeometry x="380" y="470" width="80" height="80" as="geometry" />
        </mxCell>
        <mxCell id="tyS5qPTHtcAFGtZFeySP-19" value="N" style="text;html=1;strokeColor=none;fillColor=none;align=center;verticalAlign=middle;whiteSpace=wrap;rounded=0;" vertex="1" parent="1">
          <mxGeometry x="400" y="450" width="60" height="30" as="geometry" />
        </mxCell>
        <mxCell id="tyS5qPTHtcAFGtZFeySP-20" value="N" style="text;html=1;strokeColor=none;fillColor=none;align=center;verticalAlign=middle;whiteSpace=wrap;rounded=0;" vertex="1" parent="1">
          <mxGeometry x="560" y="570" width="60" height="30" as="geometry" />
        </mxCell>
        <mxCell id="tyS5qPTHtcAFGtZFeySP-21" value="SALA" style="rounded=0;whiteSpace=wrap;html=1;" vertex="1" parent="1">
          <mxGeometry x="360" y="600" width="120" height="60" as="geometry" />
        </mxCell>
        <mxCell id="tyS5qPTHtcAFGtZFeySP-22" value="" style="endArrow=none;dashed=1;html=1;rounded=0;" edge="1" parent="1">
          <mxGeometry width="50" height="50" relative="1" as="geometry">
            <mxPoint x="419.5" y="600" as="sourcePoint" />
            <mxPoint x="419.5" y="550" as="targetPoint" />
          </mxGeometry>
        </mxCell>
        <mxCell id="tyS5qPTHtcAFGtZFeySP-23" value="1" style="text;html=1;strokeColor=none;fillColor=none;align=center;verticalAlign=middle;whiteSpace=wrap;rounded=0;" vertex="1" parent="1">
          <mxGeometry x="400" y="570" width="60" height="30" as="geometry" />
        </mxCell>
        <mxCell id="tyS5qPTHtcAFGtZFeySP-24" value="" style="endArrow=none;dashed=1;html=1;rounded=0;exitX=0;exitY=0.5;exitDx=0;exitDy=0;" edge="1" parent="1" source="tyS5qPTHtcAFGtZFeySP-16">
          <mxGeometry width="50" height="50" relative="1" as="geometry">
            <mxPoint x="520.5" y="629.5" as="sourcePoint" />
            <mxPoint x="480" y="629.5" as="targetPoint" />
          </mxGeometry>
        </mxCell>
        <mxCell id="tyS5qPTHtcAFGtZFeySP-25" value="1" style="text;html=1;strokeColor=none;fillColor=none;align=center;verticalAlign=middle;whiteSpace=wrap;rounded=0;" vertex="1" parent="1">
          <mxGeometry x="490" y="600" width="60" height="30" as="geometry" />
        </mxCell>
        <mxCell id="tyS5qPTHtcAFGtZFeySP-26" value="" style="endArrow=none;dashed=1;html=1;rounded=0;" edge="1" parent="1">
          <mxGeometry width="50" height="50" relative="1" as="geometry">
            <mxPoint x="360" y="389" as="sourcePoint" />
            <mxPoint x="310" y="389" as="targetPoint" />
          </mxGeometry>
        </mxCell>
        <mxCell id="tyS5qPTHtcAFGtZFeySP-27" value="TER" style="rhombus;whiteSpace=wrap;html=1;" vertex="1" parent="1">
          <mxGeometry x="230" y="350" width="80" height="80" as="geometry" />
        </mxCell>
        <mxCell id="tyS5qPTHtcAFGtZFeySP-28" value="1" style="text;html=1;strokeColor=none;fillColor=none;align=center;verticalAlign=middle;whiteSpace=wrap;rounded=0;" vertex="1" parent="1">
          <mxGeometry x="320" y="390" width="60" height="30" as="geometry" />
        </mxCell>
        <mxCell id="tyS5qPTHtcAFGtZFeySP-29" value="N" style="text;html=1;strokeColor=none;fillColor=none;align=center;verticalAlign=middle;whiteSpace=wrap;rounded=0;" vertex="1" parent="1">
          <mxGeometry x="250" y="430" width="60" height="30" as="geometry" />
        </mxCell>
        <mxCell id="tyS5qPTHtcAFGtZFeySP-30" value="" style="endArrow=none;dashed=1;html=1;rounded=0;" edge="1" parent="1">
          <mxGeometry width="50" height="50" relative="1" as="geometry">
            <mxPoint x="269.5" y="480" as="sourcePoint" />
            <mxPoint x="269.5" y="430" as="targetPoint" />
          </mxGeometry>
        </mxCell>
        <mxCell id="tyS5qPTHtcAFGtZFeySP-31" value="AULAS" style="rounded=0;whiteSpace=wrap;html=1;" vertex="1" parent="1">
          <mxGeometry x="210" y="480" width="120" height="60" as="geometry" />
        </mxCell>
        <mxCell id="tyS5qPTHtcAFGtZFeySP-32" value="" style="endArrow=none;dashed=1;html=1;rounded=0;" edge="1" parent="1">
          <mxGeometry width="50" height="50" relative="1" as="geometry">
            <mxPoint x="269.5" y="590" as="sourcePoint" />
            <mxPoint x="269.5" y="540" as="targetPoint" />
          </mxGeometry>
        </mxCell>
        <mxCell id="tyS5qPTHtcAFGtZFeySP-33" value="" style="endArrow=none;dashed=1;html=1;rounded=0;" edge="1" parent="1">
          <mxGeometry width="50" height="50" relative="1" as="geometry">
            <mxPoint x="269.5" y="640" as="sourcePoint" />
            <mxPoint x="269.5" y="590" as="targetPoint" />
          </mxGeometry>
        </mxCell>
        <mxCell id="tyS5qPTHtcAFGtZFeySP-34" value="" style="endArrow=none;dashed=1;html=1;rounded=0;" edge="1" parent="1">
          <mxGeometry width="50" height="50" relative="1" as="geometry">
            <mxPoint x="269.5" y="690" as="sourcePoint" />
            <mxPoint x="269.5" y="640" as="targetPoint" />
          </mxGeometry>
        </mxCell>
        <mxCell id="tyS5qPTHtcAFGtZFeySP-35" value="" style="endArrow=none;dashed=1;html=1;rounded=0;" edge="1" parent="1">
          <mxGeometry width="50" height="50" relative="1" as="geometry">
            <mxPoint x="269.5" y="740" as="sourcePoint" />
            <mxPoint x="269.5" y="690" as="targetPoint" />
          </mxGeometry>
        </mxCell>
        <mxCell id="tyS5qPTHtcAFGtZFeySP-36" value="" style="endArrow=none;dashed=1;html=1;rounded=0;" edge="1" parent="1">
          <mxGeometry width="50" height="50" relative="1" as="geometry">
            <mxPoint x="320" y="740" as="sourcePoint" />
            <mxPoint x="269.5" y="740" as="targetPoint" />
          </mxGeometry>
        </mxCell>
        <mxCell id="tyS5qPTHtcAFGtZFeySP-38" value="" style="endArrow=none;dashed=1;html=1;rounded=0;" edge="1" parent="1">
          <mxGeometry width="50" height="50" relative="1" as="geometry">
            <mxPoint x="370.5" y="740" as="sourcePoint" />
            <mxPoint x="320" y="740" as="targetPoint" />
          </mxGeometry>
        </mxCell>
        <mxCell id="tyS5qPTHtcAFGtZFeySP-39" value="" style="endArrow=none;dashed=1;html=1;rounded=0;" edge="1" parent="1">
          <mxGeometry width="50" height="50" relative="1" as="geometry">
            <mxPoint x="420.5" y="740" as="sourcePoint" />
            <mxPoint x="370" y="740" as="targetPoint" />
          </mxGeometry>
        </mxCell>
        <mxCell id="tyS5qPTHtcAFGtZFeySP-40" value="" style="endArrow=none;dashed=1;html=1;rounded=0;" edge="1" parent="1">
          <mxGeometry width="50" height="50" relative="1" as="geometry">
            <mxPoint x="470.5" y="740" as="sourcePoint" />
            <mxPoint x="420" y="740" as="targetPoint" />
          </mxGeometry>
        </mxCell>
        <mxCell id="tyS5qPTHtcAFGtZFeySP-41" value="" style="endArrow=none;dashed=1;html=1;rounded=0;" edge="1" parent="1">
          <mxGeometry width="50" height="50" relative="1" as="geometry">
            <mxPoint x="520.5" y="740" as="sourcePoint" />
            <mxPoint x="470" y="740" as="targetPoint" />
          </mxGeometry>
        </mxCell>
        <mxCell id="tyS5qPTHtcAFGtZFeySP-42" value="" style="endArrow=none;dashed=1;html=1;rounded=0;" edge="1" parent="1">
          <mxGeometry width="50" height="50" relative="1" as="geometry">
            <mxPoint x="570.5" y="740" as="sourcePoint" />
            <mxPoint x="520" y="740" as="targetPoint" />
          </mxGeometry>
        </mxCell>
        <mxCell id="tyS5qPTHtcAFGtZFeySP-43" value="" style="endArrow=none;dashed=1;html=1;rounded=0;" edge="1" parent="1">
          <mxGeometry width="50" height="50" relative="1" as="geometry">
            <mxPoint x="570" y="700" as="sourcePoint" />
            <mxPoint x="569.5" y="740" as="targetPoint" />
          </mxGeometry>
        </mxCell>
        <mxCell id="tyS5qPTHtcAFGtZFeySP-44" value="" style="endArrow=none;dashed=1;html=1;rounded=0;" edge="1" parent="1">
          <mxGeometry width="50" height="50" relative="1" as="geometry">
            <mxPoint x="570" y="670" as="sourcePoint" />
            <mxPoint x="569.5" y="710" as="targetPoint" />
          </mxGeometry>
        </mxCell>
      </root>
    </mxGraphModel>
  </diagram>
</mxfile>
